<svg xmlns="http://www.w3.org/2000/svg" width="117" height="22" viewBox="901 33 117 22"><path d="M1018 55h-6l-5-6.875-5 6.875h-6l8-11-8-11h6l5 6.875 5-6.875h6l-8 11 8 11zm-26-22h-15v22h15v-4h-10v-5h9v-4h-9v-5h10v-4zm-58 22c-6.075 0-11-4.925-11-11a11.034 11.034 0 01.183-1.949l5.726 5.09C929.966 48.851 931.842 50 934 50a6 6 0 006-6 6 6 0 00-6-6 5.914 5.914 0 00-4.136 1.683 6.131 6.131 0 00-1.07 1.387l-3.822-3.345a10.986 10.986 0 018.418-4.708A11.151 11.151 0 01934 33c6.075 0 11 4.925 11 11s-4.925 11-11 11zm-32-21h17l-10 17h9v4h-17l10-16h-9v-5zm49 5l19 16V33h-5v11l-14-11v6zm0 16V45l5 3v7h-5z" fill="rgba(21, 21, 21, 1)" fill-rule="evenodd" data-name="logo zonex"/></svg>